<?xml version="1.0" standalone="no"?>
<!DOCTYPE svg PUBLIC "-//W3C//DTD SVG 20010904//EN"
 "http://www.w3.org/TR/2001/REC-SVG-20010904/DTD/svg10.dtd">
<svg version="1.0" xmlns="http://www.w3.org/2000/svg"
 width="292.000000pt" height="292.000000pt" viewBox="0 0 292.000000 292.000000"
 preserveAspectRatio="xMidYMid meet">
<metadata>
Created by potrace 1.11, written by Peter Selinger 2001-2013
</metadata>
<g transform="translate(0.000000,292.000000) scale(0.100000,-0.100000)"
fill="#000000" stroke="none">
<path d="M430 1465 l0 -1275 1030 0 1030 0 0 1275 0 1275 -1030 0 -1030 0 0
-1275z m1980 -5 l0 -1200 -950 0 -950 0 0 1200 0 1200 950 0 950 0 0 -1200z"/>
<path d="M795 2435 l-25 -24 0 -950 0 -950 26 -20 c26 -21 34 -21 676 -21
l649 0 24 25 25 24 0 946 0 946 -25 24 -24 25 -651 0 -651 0 -24 -25z m692
-71 c2 -5 -6 -10 -17 -11 -20 -2 -26 8 -13 21 9 8 26 3 30 -10z m595 -73 c10
-2 8 -1630 -2 -1636 -8 -5 -291 -7 -926 -6 l-302 1 0 817 c0 450 4 820 8 823
7 4 1200 5 1222 1z m-566 -1706 c24 -37 -4 -85 -50 -85 -54 0 -72 85 -23 107
29 13 55 5 73 -22z"/>
<path d="M993 2153 c-17 -6 -17 -109 -1 -119 12 -8 99 -7 107 1 9 9 8 106 -2
112 -11 7 -88 11 -104 6z"/>
<path d="M1289 2151 c-22 -7 -26 -19 -24 -69 l1 -47 60 0 59 0 3 58 c2 41 -1
57 -10 58 -49 4 -78 4 -89 0z"/>
<path d="M1573 2152 c-21 -3 -23 -9 -23 -63 l0 -60 62 3 63 3 0 53 c0 30 -4
56 -9 59 -11 8 -64 10 -93 5z"/>
<path d="M1848 2149 c-13 -8 -19 -91 -8 -109 4 -7 28 -10 61 -8 l54 3 3 58 c2
41 -1 57 -10 58 -49 5 -90 4 -100 -2z"/>
<path d="M989 1889 c-6 -3 -9 -30 -7 -60 l3 -54 58 -3 c31 -2 58 1 58 5 7 38
3 105 -5 111 -14 9 -94 10 -107 1z"/>
<path d="M1272 1885 c-7 -9 -8 -23 -3 -93 1 -22 5 -23 59 -20 l57 3 3 58 c3
62 9 57 -71 61 -21 1 -41 -3 -45 -9z"/>
<path d="M984 796 c-3 -8 -4 -35 -2 -62 l3 -49 53 -1 c29 -1 55 3 59 10 11 16
11 89 1 103 -13 16 -108 15 -114 -1z"/>
<path d="M1272 797 c-7 -10 -9 -78 -3 -108 0 -4 27 -6 59 -5 l57 1 3 54 c2 35
-1 57 -9 62 -19 12 -97 9 -107 -4z"/>
<path d="M1561 801 c-8 -5 -11 -27 -9 -62 l3 -54 58 -2 c53 -3 57 -2 59 19 4
70 4 84 -4 95 -10 13 -88 16 -107 4z"/>
<path d="M1843 797 c-11 -19 -11 -96 1 -106 6 -5 34 -8 61 -8 l50 2 0 60 0 60
-52 2 c-31 1 -56 -3 -60 -10z"/>
<path d="M1447 573 c-8 -18 -1 -38 17 -41 21 -4 37 14 29 35 -5 14 -39 18 -46
6z"/>
</g>
</svg>
